<?xml version="1.0" encoding="utf-8"?>
<!-- Generator: Adobe Illustrator 16.0.0, SVG Export Plug-In . SVG Version: 6.00 Build 0)  -->
<!DOCTYPE svg PUBLIC "-//W3C//DTD SVG 1.1//EN" "http://www.w3.org/Graphics/SVG/1.1/DTD/svg11.dtd">
<svg version="1.1" id="圖層_1" xmlns="http://www.w3.org/2000/svg" xmlns:xlink="http://www.w3.org/1999/xlink" x="0px" y="0px"
	 width="5px" height="5px" viewBox="-8.75 90.966 5 5" enable-background="new -8.75 90.966 5 5" xml:space="preserve">
<path fill="#FFFFFF" d="M-7.959,94.233l0.535-0.047c0.025,0.215,0.084,0.391,0.178,0.529c0.092,0.138,0.236,0.249,0.432,0.334
	s0.416,0.127,0.66,0.127c0.217,0,0.408-0.032,0.574-0.098c0.166-0.064,0.289-0.152,0.371-0.265c0.08-0.112,0.121-0.235,0.121-0.368
	c0-0.135-0.039-0.252-0.117-0.353c-0.078-0.102-0.207-0.186-0.387-0.253c-0.115-0.045-0.371-0.115-0.766-0.209
	c-0.395-0.095-0.67-0.185-0.828-0.269c-0.205-0.106-0.359-0.24-0.459-0.399c-0.102-0.159-0.15-0.337-0.15-0.535
	c0-0.217,0.061-0.419,0.184-0.608c0.123-0.188,0.303-0.332,0.539-0.429c0.236-0.097,0.5-0.146,0.789-0.146
	c0.318,0,0.6,0.052,0.841,0.154c0.244,0.104,0.431,0.253,0.562,0.453s0.201,0.425,0.211,0.677l-0.545,0.041
	c-0.029-0.271-0.129-0.477-0.297-0.614c-0.17-0.14-0.418-0.208-0.748-0.208c-0.344,0-0.596,0.063-0.752,0.188
	c-0.158,0.126-0.236,0.278-0.236,0.456c0,0.154,0.057,0.281,0.168,0.381c0.109,0.101,0.395,0.202,0.857,0.306
	c0.461,0.104,0.776,0.196,0.948,0.274c0.25,0.115,0.437,0.261,0.556,0.438c0.118,0.177,0.178,0.38,0.178,0.61
	c0,0.229-0.063,0.444-0.194,0.646s-0.32,0.358-0.564,0.472c-0.248,0.11-0.523,0.166-0.83,0.166c-0.389,0-0.715-0.057-0.977-0.17
	c-0.264-0.113-0.469-0.284-0.617-0.511C-7.874,94.778-7.952,94.52-7.959,94.233z"/>
</svg>
