<?xml version="1.0" encoding="utf-8"?>
<!-- Generator: Adobe Illustrator 16.0.0, SVG Export Plug-In . SVG Version: 6.00 Build 0)  -->
<!DOCTYPE svg PUBLIC "-//W3C//DTD SVG 1.1//EN" "http://www.w3.org/Graphics/SVG/1.1/DTD/svg11.dtd">
<svg version="1.1" id="圖層_1" xmlns="http://www.w3.org/2000/svg" xmlns:xlink="http://www.w3.org/1999/xlink" x="0px" y="0px"
	 width="5px" height="5px" viewBox="-8.75 90.966 5 5" enable-background="new -8.75 90.966 5 5" xml:space="preserve">
<path fill="#FFFFFF" d="M-5.13,91.282h0.568v2.48c0,0.432-0.049,0.773-0.146,1.027c-0.097,0.256-0.273,0.461-0.529,0.621
	c-0.254,0.158-0.588,0.238-1.002,0.238c-0.402,0-0.731-0.068-0.988-0.207c-0.256-0.139-0.438-0.34-0.547-0.602
	c-0.108-0.264-0.164-0.623-0.164-1.078v-2.48h0.568v2.479c0,0.373,0.033,0.648,0.104,0.826c0.068,0.176,0.188,0.313,0.357,0.408
	c0.168,0.096,0.375,0.145,0.619,0.145c0.418,0,0.717-0.096,0.895-0.285c0.179-0.189,0.267-0.553,0.267-1.092L-5.13,91.282
	L-5.13,91.282z"/>
</svg>
