<?xml version="1.0" encoding="utf-8"?>
<!-- Generator: Adobe Illustrator 16.0.0, SVG Export Plug-In . SVG Version: 6.00 Build 0)  -->
<!DOCTYPE svg PUBLIC "-//W3C//DTD SVG 1.1//EN" "http://www.w3.org/Graphics/SVG/1.1/DTD/svg11.dtd">
<svg version="1.1" id="圖層_1" xmlns="http://www.w3.org/2000/svg" xmlns:xlink="http://www.w3.org/1999/xlink" x="0px" y="0px"
	 width="5px" height="5px" viewBox="-8.75 90.966 5 5" enable-background="new -8.75 90.966 5 5" xml:space="preserve">
<path fill="#FFFFFF" d="M-8.304,93.522c0-0.713,0.191-1.27,0.574-1.674c0.383-0.402,0.877-0.605,1.481-0.605
	c0.396,0,0.755,0.096,1.072,0.285c0.318,0.189,0.562,0.453,0.728,0.791c0.168,0.34,0.252,0.725,0.252,1.154
	c0,0.436-0.088,0.824-0.265,1.168c-0.176,0.344-0.426,0.604-0.748,0.781c-0.321,0.178-0.67,0.266-1.043,0.266
	c-0.403,0-0.766-0.098-1.084-0.293c-0.317-0.195-0.559-0.463-0.723-0.801S-8.304,93.899-8.304,93.522z M-7.718,93.532
	c0,0.518,0.14,0.926,0.416,1.223c0.279,0.299,0.629,0.447,1.049,0.447c0.429,0,0.779-0.15,1.056-0.451s0.416-0.729,0.416-1.279
	c0-0.352-0.062-0.656-0.179-0.916c-0.118-0.262-0.291-0.463-0.52-0.607c-0.228-0.143-0.482-0.215-0.766-0.215
	c-0.402,0-0.748,0.139-1.039,0.416C-7.573,92.425-7.718,92.885-7.718,93.532z"/>
</svg>
