<?xml version="1.0" encoding="utf-8"?>
<!-- Generator: Adobe Illustrator 16.0.0, SVG Export Plug-In . SVG Version: 6.00 Build 0)  -->
<!DOCTYPE svg PUBLIC "-//W3C//DTD SVG 1.1//EN" "http://www.w3.org/Graphics/SVG/1.1/DTD/svg11.dtd">
<svg version="1.1" id="圖層_1" xmlns="http://www.w3.org/2000/svg" xmlns:xlink="http://www.w3.org/1999/xlink" x="0px" y="0px"
	 width="5px" height="5px" viewBox="-8.75 90.966 5 5" enable-background="new -8.75 90.966 5 5" xml:space="preserve">
<path fill="#FFFFFF" d="M-8.026,95.613v-4.295h1.479c0.334,0,0.591,0.021,0.767,0.063c0.246,0.057,0.455,0.159,0.629,0.308
	c0.228,0.191,0.396,0.437,0.511,0.734c0.11,0.298,0.168,0.638,0.168,1.021c0,0.326-0.039,0.615-0.115,0.867s-0.174,0.46-0.293,0.625
	s-0.25,0.295-0.392,0.39c-0.143,0.096-0.313,0.167-0.512,0.216c-0.201,0.049-0.433,0.072-0.69,0.072H-8.026z M-7.458,95.106h0.916
	c0.283,0,0.506-0.025,0.668-0.079c0.16-0.053,0.289-0.127,0.385-0.223c0.135-0.135,0.238-0.316,0.314-0.543
	c0.074-0.229,0.112-0.503,0.112-0.828c0-0.449-0.073-0.794-0.221-1.036c-0.147-0.241-0.328-0.403-0.539-0.485
	c-0.151-0.059-0.396-0.088-0.733-0.088h-0.902V95.106z"/>
</svg>
