<?xml version="1.0" encoding="utf-8"?>
<!-- Generator: Adobe Illustrator 16.0.0, SVG Export Plug-In . SVG Version: 6.00 Build 0)  -->
<!DOCTYPE svg PUBLIC "-//W3C//DTD SVG 1.1//EN" "http://www.w3.org/Graphics/SVG/1.1/DTD/svg11.dtd">
<svg version="1.1" id="圖層_1" xmlns="http://www.w3.org/2000/svg" xmlns:xlink="http://www.w3.org/1999/xlink" x="0px" y="0px"
	 width="80px" height="70.431px" viewBox="0 0 80 70.431" enable-background="new 0 0 80 70.431" xml:space="preserve">
<g>
	<g>
		<g>
			<rect x="30.954" y="26.706" fill="#FFFFFF" width="6.856" height="6.857"/>
			<rect x="42.189" y="26.706" fill="#FFFFFF" width="6.858" height="6.857"/>
			<rect x="30.954" y="37.503" fill="#FFFFFF" width="6.856" height="6.858"/>
			<rect x="42.189" y="37.503" fill="#FFFFFF" width="6.858" height="6.858"/>
		</g>
		<polygon fill="#FFFFFF" points="80,25.169 40,0 0,25.169 6.815,25.169 40,4.29 73.185,25.169 		"/>
	</g>
	<g>
		<path fill="#FFFFFF" d="M12.713,60.127v-4.295h0.568v1.764h2.232v-1.764h0.568v4.295h-0.568v-2.024h-2.232v2.024H12.713z"/>
		<path fill="#FFFFFF" d="M18.057,58.035c0-0.713,0.191-1.271,0.574-1.674s0.877-0.605,1.482-0.605c0.396,0,0.754,0.095,1.072,0.284
			s0.561,0.454,0.727,0.792c0.168,0.339,0.252,0.723,0.252,1.153c0,0.436-0.088,0.825-0.264,1.169s-0.426,0.604-0.748,0.781
			s-0.67,0.265-1.043,0.265c-0.404,0-0.766-0.098-1.084-0.293s-0.559-0.462-0.723-0.8S18.057,58.412,18.057,58.035z M18.643,58.044
			c0,0.518,0.139,0.925,0.416,1.223c0.279,0.298,0.629,0.447,1.049,0.447c0.428,0,0.779-0.15,1.055-0.451
			c0.277-0.301,0.416-0.728,0.416-1.28c0-0.35-0.061-0.655-0.178-0.916c-0.119-0.261-0.291-0.463-0.52-0.606
			c-0.227-0.144-0.482-0.215-0.766-0.215c-0.402,0-0.748,0.138-1.039,0.415C18.787,56.936,18.643,57.397,18.643,58.044z"/>
		<path fill="#FFFFFF" d="M24.078,60.127v-4.295h0.855l1.018,3.041c0.094,0.283,0.162,0.495,0.205,0.636
			c0.049-0.156,0.125-0.386,0.229-0.688l1.027-2.988h0.766v4.295h-0.549v-3.595l-1.248,3.595h-0.512l-1.242-3.656v3.656H24.078z"/>
		<path fill="#FFFFFF" d="M30.305,60.127v-4.295h3.105v0.507h-2.537v1.315h2.377v0.504h-2.377v1.462h2.637v0.507H30.305z"/>
		<path fill="#FFFFFF" d="M38.17,58.747l0.535-0.047c0.025,0.215,0.084,0.391,0.178,0.529c0.092,0.138,0.236,0.249,0.432,0.334
			s0.416,0.127,0.66,0.127c0.217,0,0.408-0.032,0.574-0.097s0.289-0.153,0.371-0.265c0.08-0.112,0.121-0.235,0.121-0.368
			c0-0.135-0.039-0.252-0.117-0.353s-0.207-0.185-0.387-0.253c-0.115-0.045-0.371-0.115-0.766-0.209s-0.67-0.184-0.828-0.268
			c-0.205-0.107-0.359-0.241-0.459-0.4c-0.102-0.159-0.15-0.337-0.15-0.535c0-0.217,0.061-0.419,0.184-0.608
			s0.303-0.332,0.539-0.429s0.5-0.146,0.789-0.146c0.318,0,0.6,0.051,0.842,0.154c0.244,0.103,0.43,0.253,0.561,0.453
			s0.201,0.425,0.211,0.677l-0.545,0.041c-0.029-0.271-0.129-0.477-0.297-0.615c-0.17-0.139-0.418-0.208-0.748-0.208
			c-0.344,0-0.596,0.063-0.752,0.189c-0.158,0.126-0.236,0.278-0.236,0.456c0,0.154,0.057,0.281,0.168,0.381
			c0.109,0.1,0.395,0.202,0.857,0.306c0.461,0.104,0.777,0.196,0.949,0.274c0.25,0.115,0.436,0.261,0.555,0.438
			s0.178,0.38,0.178,0.611c0,0.229-0.064,0.444-0.195,0.646s-0.32,0.359-0.564,0.472C40.582,60.144,40.307,60.2,40,60.2
			c-0.389,0-0.715-0.057-0.977-0.17c-0.264-0.113-0.469-0.284-0.617-0.511C38.256,59.292,38.178,59.034,38.17,58.747z"/>
		<path fill="#FFFFFF" d="M44.658,60.127v-3.788h-1.416v-0.507h3.404v0.507h-1.42v3.788H44.658z"/>
		<path fill="#FFFFFF" d="M51.248,55.832h0.568v2.481c0,0.432-0.049,0.774-0.146,1.028s-0.273,0.46-0.529,0.62
			c-0.254,0.159-0.588,0.239-1.002,0.239c-0.402,0-0.732-0.069-0.988-0.208s-0.438-0.339-0.547-0.602s-0.164-0.622-0.164-1.077
			v-2.481h0.568v2.479c0,0.373,0.033,0.648,0.104,0.825c0.068,0.177,0.188,0.313,0.357,0.409c0.168,0.096,0.375,0.144,0.619,0.144
			c0.418,0,0.717-0.095,0.895-0.284s0.266-0.554,0.266-1.093V55.832z"/>
		<path fill="#FFFFFF" d="M53.963,60.127v-4.295h1.479c0.334,0,0.59,0.021,0.766,0.062c0.246,0.057,0.455,0.159,0.629,0.308
			c0.227,0.191,0.396,0.436,0.51,0.734c0.111,0.298,0.168,0.638,0.168,1.021c0,0.326-0.039,0.615-0.115,0.867
			s-0.174,0.46-0.293,0.625s-0.25,0.295-0.391,0.39c-0.143,0.095-0.313,0.167-0.512,0.215c-0.201,0.049-0.432,0.073-0.691,0.073
			H53.963z M54.531,59.62h0.916c0.283,0,0.506-0.026,0.668-0.079c0.16-0.053,0.289-0.127,0.385-0.223
			c0.135-0.135,0.238-0.316,0.314-0.543c0.074-0.228,0.113-0.503,0.113-0.828c0-0.449-0.074-0.794-0.221-1.036
			c-0.148-0.241-0.328-0.403-0.539-0.485c-0.152-0.059-0.396-0.088-0.734-0.088h-0.902V59.62z"/>
		<path fill="#FFFFFF" d="M59.592,60.127v-4.295h0.568v4.295H59.592z"/>
		<path fill="#FFFFFF" d="M62.189,58.035c0-0.713,0.191-1.271,0.574-1.674s0.877-0.605,1.482-0.605c0.396,0,0.754,0.095,1.072,0.284
			s0.563,0.454,0.729,0.792c0.168,0.339,0.25,0.723,0.25,1.153c0,0.436-0.088,0.825-0.264,1.169s-0.424,0.604-0.746,0.781
			s-0.67,0.265-1.043,0.265c-0.404,0-0.766-0.098-1.084-0.293s-0.561-0.462-0.725-0.8S62.189,58.412,62.189,58.035z M62.775,58.044
			c0,0.518,0.141,0.925,0.418,1.223c0.279,0.298,0.627,0.447,1.047,0.447c0.428,0,0.779-0.15,1.057-0.451
			c0.275-0.301,0.414-0.728,0.414-1.28c0-0.35-0.059-0.655-0.176-0.916c-0.119-0.261-0.293-0.463-0.52-0.606
			c-0.229-0.144-0.482-0.215-0.766-0.215c-0.402,0-0.748,0.138-1.039,0.415C62.922,56.936,62.775,57.397,62.775,58.044z"/>
	</g>
</g>
</svg>
