<?xml version="1.0" encoding="utf-8"?>
<!-- Generator: Adobe Illustrator 16.0.0, SVG Export Plug-In . SVG Version: 6.00 Build 0)  -->
<!DOCTYPE svg PUBLIC "-//W3C//DTD SVG 1.1//EN" "http://www.w3.org/Graphics/SVG/1.1/DTD/svg11.dtd">
<svg version="1.1" id="圖層_1" xmlns="http://www.w3.org/2000/svg" xmlns:xlink="http://www.w3.org/1999/xlink" x="0px" y="0px"
	 width="5.791px" height="5.25px" viewBox="61.396 55.352 5.791 5.25" enable-background="new 61.396 55.352 5.791 5.25"
	 xml:space="preserve">
<path fill="#FFFFFF" d="M62.189,58.034c0-0.713,0.19-1.27,0.574-1.674c0.383-0.402,0.877-0.605,1.481-0.605
	c0.396,0,0.754,0.096,1.071,0.285c0.318,0.189,0.563,0.453,0.729,0.791c0.168,0.34,0.25,0.725,0.25,1.154
	c0,0.436-0.088,0.824-0.264,1.168c-0.177,0.344-0.425,0.604-0.746,0.781c-0.322,0.178-0.67,0.266-1.043,0.266
	c-0.404,0-0.767-0.098-1.084-0.293c-0.318-0.195-0.562-0.463-0.726-0.801S62.189,58.411,62.189,58.034z M62.775,58.044
	c0,0.518,0.141,0.926,0.418,1.223c0.279,0.299,0.627,0.447,1.047,0.447c0.428,0,0.779-0.15,1.057-0.451
	c0.275-0.301,0.414-0.729,0.414-1.279c0-0.352-0.059-0.656-0.176-0.916c-0.119-0.262-0.293-0.463-0.52-0.607
	c-0.229-0.143-0.482-0.215-0.767-0.215c-0.401,0-0.748,0.139-1.039,0.416C62.922,56.936,62.775,57.397,62.775,58.044z"/>
</svg>
