<?xml version="1.0" encoding="utf-8"?>
<!-- Generator: Adobe Illustrator 16.0.0, SVG Export Plug-In . SVG Version: 6.00 Build 0)  -->
<!DOCTYPE svg PUBLIC "-//W3C//DTD SVG 1.1//EN" "http://www.w3.org/Graphics/SVG/1.1/DTD/svg11.dtd">
<svg version="1.1" id="圖層_1" xmlns="http://www.w3.org/2000/svg" xmlns:xlink="http://www.w3.org/1999/xlink" x="0px" y="0px"
	 width="5.875px" height="5.25px" viewBox="17.25 55.352 5.875 5.25" enable-background="new 17.25 55.352 5.875 5.25"
	 xml:space="preserve">
<path fill="#FFFFFF" d="M18.057,58.034c0-0.713,0.191-1.27,0.574-1.674c0.383-0.402,0.877-0.605,1.482-0.605
	c0.396,0,0.754,0.096,1.072,0.285s0.561,0.453,0.727,0.791c0.168,0.34,0.252,0.725,0.252,1.154c0,0.436-0.088,0.824-0.264,1.168
	c-0.176,0.344-0.426,0.604-0.748,0.781c-0.322,0.178-0.67,0.266-1.043,0.266c-0.404,0-0.766-0.098-1.084-0.293
	s-0.559-0.463-0.723-0.801C18.138,58.768,18.057,58.411,18.057,58.034z M18.643,58.044c0,0.518,0.139,0.926,0.416,1.223
	c0.279,0.299,0.629,0.447,1.049,0.447c0.428,0,0.779-0.15,1.055-0.451c0.277-0.301,0.416-0.729,0.416-1.279
	c0-0.352-0.061-0.656-0.178-0.916c-0.119-0.262-0.291-0.463-0.52-0.607c-0.227-0.143-0.482-0.215-0.766-0.215
	c-0.402,0-0.748,0.139-1.039,0.416C18.787,56.936,18.643,57.397,18.643,58.044z"/>
</svg>
