<?xml version="1.0" encoding="utf-8"?>
<!-- Generator: Adobe Illustrator 16.0.0, SVG Export Plug-In . SVG Version: 6.00 Build 0)  -->
<!DOCTYPE svg PUBLIC "-//W3C//DTD SVG 1.1//EN" "http://www.w3.org/Graphics/SVG/1.1/DTD/svg11.dtd">
<svg version="1.1" id="圖層_1" xmlns="http://www.w3.org/2000/svg" xmlns:xlink="http://www.w3.org/1999/xlink" x="0px" y="0px"
	 width="5.214px" height="5.25px" viewBox="37.328 55.352 5.214 5.25" enable-background="new 37.328 55.352 5.214 5.25"
	 xml:space="preserve">
<path fill="#FFFFFF" d="M38.17,58.747l0.535-0.047c0.025,0.215,0.084,0.391,0.178,0.529c0.092,0.137,0.236,0.248,0.432,0.334
	c0.196,0.084,0.416,0.127,0.66,0.127c0.217,0,0.408-0.033,0.574-0.098s0.289-0.152,0.371-0.266c0.08-0.111,0.121-0.234,0.121-0.367
	c0-0.135-0.039-0.252-0.117-0.354s-0.207-0.186-0.387-0.252c-0.115-0.045-0.371-0.115-0.766-0.209
	c-0.395-0.096-0.67-0.186-0.828-0.27c-0.205-0.105-0.359-0.24-0.459-0.398c-0.102-0.16-0.15-0.338-0.15-0.535
	c0-0.217,0.061-0.42,0.184-0.609c0.123-0.188,0.303-0.332,0.539-0.428c0.236-0.098,0.5-0.146,0.789-0.146
	c0.318,0,0.6,0.051,0.841,0.154c0.244,0.104,0.431,0.252,0.562,0.453c0.131,0.199,0.201,0.424,0.211,0.676l-0.545,0.041
	c-0.029-0.27-0.129-0.477-0.297-0.613c-0.17-0.141-0.418-0.209-0.748-0.209c-0.344,0-0.596,0.063-0.752,0.189
	c-0.158,0.125-0.236,0.277-0.236,0.455c0,0.154,0.057,0.281,0.168,0.381c0.109,0.102,0.395,0.203,0.857,0.307
	c0.461,0.104,0.776,0.195,0.948,0.273c0.25,0.115,0.437,0.262,0.556,0.439c0.118,0.176,0.178,0.379,0.178,0.609
	s-0.063,0.445-0.194,0.646c-0.131,0.203-0.32,0.359-0.564,0.473C40.582,60.143,40.307,60.2,40,60.2c-0.389,0-0.715-0.057-0.977-0.17
	c-0.264-0.113-0.469-0.285-0.617-0.512C38.256,59.292,38.178,59.034,38.17,58.747z"/>
</svg>
