<?xml version="1.0" encoding="utf-8"?>
<!-- Generator: Adobe Illustrator 16.0.0, SVG Export Plug-In . SVG Version: 6.00 Build 0)  -->
<!DOCTYPE svg PUBLIC "-//W3C//DTD SVG 1.1//EN" "http://www.w3.org/Graphics/SVG/1.1/DTD/svg11.dtd">
<svg version="1.1" id="圖層_1" xmlns="http://www.w3.org/2000/svg" xmlns:xlink="http://www.w3.org/1999/xlink" x="0px" y="0px"
	 width="5.625px" height="5.25px" viewBox="53.031 55.352 5.625 5.25" enable-background="new 53.031 55.352 5.625 5.25"
	 xml:space="preserve">
<path fill="#FFFFFF" d="M53.963,60.126v-4.295h1.479c0.334,0,0.591,0.021,0.767,0.063c0.246,0.057,0.455,0.16,0.629,0.309
	c0.228,0.191,0.396,0.436,0.511,0.734c0.11,0.297,0.168,0.637,0.168,1.02c0,0.326-0.039,0.615-0.115,0.867s-0.174,0.461-0.293,0.625
	c-0.119,0.166-0.25,0.295-0.392,0.391c-0.143,0.096-0.313,0.166-0.512,0.215c-0.201,0.049-0.433,0.072-0.69,0.072H53.963z
	 M54.531,59.62h0.916c0.283,0,0.506-0.025,0.668-0.08c0.16-0.053,0.289-0.127,0.385-0.223c0.135-0.135,0.238-0.316,0.314-0.543
	c0.074-0.229,0.112-0.502,0.112-0.828c0-0.449-0.073-0.793-0.221-1.035s-0.328-0.404-0.539-0.486
	c-0.151-0.059-0.396-0.088-0.733-0.088h-0.902V59.62z"/>
</svg>
