<?xml version="1.0" encoding="utf-8"?>
<!-- Generator: Adobe Illustrator 16.0.0, SVG Export Plug-In . SVG Version: 6.00 Build 0)  -->
<!DOCTYPE svg PUBLIC "-//W3C//DTD SVG 1.1//EN" "http://www.w3.org/Graphics/SVG/1.1/DTD/svg11.dtd">
<svg version="1.1" id="圖層_1" xmlns="http://www.w3.org/2000/svg" xmlns:xlink="http://www.w3.org/1999/xlink" x="0px" y="0px"
	 width="5.344px" height="5.25px" viewBox="47.688 55.352 5.344 5.25" enable-background="new 47.688 55.352 5.344 5.25"
	 xml:space="preserve">
<path fill="#FFFFFF" d="M51.248,55.831h0.568v2.482c0,0.432-0.049,0.773-0.146,1.027c-0.097,0.254-0.273,0.459-0.529,0.619
	c-0.254,0.16-0.588,0.24-1.002,0.24c-0.402,0-0.731-0.07-0.988-0.209c-0.256-0.139-0.438-0.338-0.547-0.602
	c-0.108-0.264-0.164-0.621-0.164-1.076v-2.482h0.568v2.48c0,0.373,0.033,0.646,0.104,0.824c0.068,0.178,0.188,0.313,0.357,0.408
	c0.168,0.098,0.375,0.145,0.619,0.145c0.418,0,0.717-0.094,0.895-0.283c0.179-0.189,0.267-0.555,0.267-1.094L51.248,55.831
	L51.248,55.831z"/>
</svg>
